#!OML:ASF E:\VariousWalksJay\Project 1\Capture day 1\Session 1\Actor2.ASF
:FULLY-SPECIFIED
:DEGREES
1057
root 7.25538 17.3412 18.0562 186.147 -25.8686 -165.016
lowerback 4.04965 6.94699 13.3723
upperback -2.14233 9.97527 -1.89326
thorax -1.94604 4.73233 -9.77279
lowerneck -7.87182 -6.36596 -7.50646
upperneck -20.2041 -7.96304 17.0553
head -3.58584 -5.02689 6.66704
rclavicle 3.43897e-014 0
rhumerus 57.2815 -0.945903 -27.9786
rradius 39.5139
rwrist 3.82356
rhand -2.20952 -18.8221
rfingers 7.12502
rthumb 23.4724 -47.4102
lclavicle 3.43897e-014 0
lhumerus 19.5156 -46.7626 -9.93562
lradius 111.084
lwrist 42.8137
lhand 44.4927 5.31026
lfingers 7.12502
lthumb 65.9979 10.733
rfemur 6.29999 -14.4652 32.4656
rtibia 52.1507
rfoot -20.7217 -18.133
rtoes -33.2555
lfemur -72.2886 11.24 -17.2273
ltibia 83.329
lfoot 12.6097 0.445468
ltoes -6.47902
1058
root 7.09675 17.3692 17.8567 184.902 -25.0434 -164.102
lowerback 3.70496 6.91931 14.4072
upperback -2.42919 9.94854 -1.20979
thorax -2.02889 4.65959 -9.57548
lowerneck -8.64104 -6.23871 -7.50691
upperneck -17.7062 -7.80974 16.4197
head -2.76934 -4.72997 6.31054
rclavicle -4.79071e-014 -5.08889e-014
rhumerus 54.6467 2.8302 -30.455
rradius 42.3865
rwrist 3.06797
rhand 0.614759 -18.283
rfingers 7.12502
rthumb 26.1791 -46.4978
lclavicle -4.79071e-014 -5.08889e-014
lhumerus 22.635 -41.0816 -11.8864
lradius 111.651
lwrist 44.0326
lhand 41.6482 4.51031
lfingers 7.12502
lthumb 63.7466 13.645
rfemur 7.741 -13.0919 30.7806
rtibia 57.9725
rfoot -19.1192 -17.8714
rtoes -34.5634
lfemur -67.5916 12.152 -17.2822
ltibia 78.8767
lfoot 12.6011 1.29527
ltoes -6.64973
1059
root 6.93661 17.3832 17.6538 183.762 -24.4764 -163.133
lowerback 3.24355 6.72689 15.4392
upperback -2.73649 9.66315 -0.488876
thorax -2.1471 4.44474 -9.33023
lowerneck -9.48276 -5.99242 -7.34519
upperneck -15.3371 -7.52506 15.6948
head -2.01567 -4.39626 5.93556
rclavicle -2.04748e-014 -7.15625e-015
rhumerus 51.5648 6.72312 -32.9895
rradius 46.0589
rwrist 2.21441
rhand 3.05172 -17.681
rfingers 7.12502
rthumb 28.51 -45.5279
lclavicle -2.04748e-014 -7.15625e-015
lhumerus 25.3907 -35.2811 -13.2721
lradius 111.305
lwrist 45.0527
lhand 38.8972 3.95271
lfingers 7.12502
lthumb 61.4749 16.0854
rfemur 8.76352 -11.7001 29.3235
rtibia 63.9043
rfoot -17.7556 -17.3528
rtoes -35.6407
lfemur -62.8174 12.9537 -17.2001
ltibia 74.1563
lfoot 11.9725 2.04813
ltoes -7.72428
1060
root 6.77978 17.3846 17.4492 182.83 -24.181 -162.191
lowerback 2.63148 6.38257 16.3411
upperback -3.06696 9.12051 0.233699
thorax -2.2973 4.09332 -9.00618
lowerneck -10.3173 -5.64254 -7.02234
upperneck -13.2835 -7.12579 14.9285
head -1.37962 -4.04626 5.56196
rclavicle 2.5842e-014 6.36111e-015
rhumerus 48.1181 10.5589 -35.6793
rradius 50.2623
rwrist 1.49491
rhand 5.30125 -17.1
rfingers 7.12502
rthumb 30.6573 -44.5663
lclavicle 2.5842e-014 6.36111e-015
lhumerus 27.9425 -29.5709 -14.3273
lradius 110.023
lwrist 45.9287
lhand 36.4879 3.65207
lfingers 7.12502
lthumb 59.4256 18.0215
rfemur 9.29438 -10.3115 28.0525
rtibia 69.8725
rfoot -16.6029 -16.8981
rtoes -36.319
lfemur -58.1586 13.6132 -17.1142
ltibia 69.3046
lfoot 10.5758 2.69033
ltoes -9.98816
1061
root 6.63029 17.3782 17.2451 182.189 -24.1866 -161.374
lowerback 1.8754 5.88715 16.9802
upperback -3.42137 8.31854 0.935053
thorax -2.49374 3.61 -8.56203
lowerneck -11.0613 -5.20538 -6.59637
upperneck -11.7323 -6.62449 14.1971
head -0.91474 -3.69405 5.22255
rclavicle 7.00716e-015 -4.45278e-014
rhumerus 44.3287 14.1838 -38.5838
rradius 54.87
rwrist 1.08631
rhand 7.58403 -16.6099
rfingers 7.12502
rthumb 32.8314 -43.6455
lclavicle 7.00716e-015 -4.45278e-014
lhumerus 30.3686 -24.1246 -15.1703
lradius 107.81
lwrist 46.7163
lhand 34.5935 3.59788
lfingers 7.12502
lthumb 57.7825 19.5129
rfemur 9.28823 -8.99158 26.8712
rtibia 75.8006
rfoot -15.6036 -16.6539
rtoes -36.6083
lfemur -53.79 14.0643 -17.1382
ltibia 64.4723
lfoot 8.3263 3.2919
ltoes -12.9535
1062
root 6.4911 17.3684 17.0456 181.899 -24.5157 -160.773
lowerback 0.988108 5.25218 17.2435
upperback -3.78965 7.27817 1.60123
thorax -2.72399 3.01511 -7.95524
lowerneck -11.65 -4.70813 -6.11838
upperneck -10.8337 -6.05089 13.5617
head -0.664062 -3.359 4.93914
rclavicle -2.54444e-014 -3.73715e-014
rhumerus 40.1629 17.4455 -41.7162
rradius 59.8476
rwrist 1.08329
rhand 9.98159 -16.2854
rfingers 7.12502
rthumb 35.1089 -42.8159
lclavicle -2.54444e-014 -3.73715e-014
lhumerus 32.7246 -19.0368 -15.8252
lradius 104.714
lwrist 47.4398
lhand 33.2463 3.77092
lfingers 7.12502
lthumb 56.5995 20.6858
rfemur 8.72135 -7.82641 25.6377
rtibia 81.6115
rfoot -14.7046 -16.5498
rtoes -36.5485
lfemur -49.8219 14.2183 -17.3463
ltibia 59.7654
lfoot 5.39084 4.02056
ltoes -15.6897
